<svg width="47" height="47" viewBox="0 0 47 47" fill="none" xmlns="http://www.w3.org/2000/svg">
<rect width="47" height="47" fill="#4770A0"/>
<path d="M22.5967 22.0767C22.5967 25.1935 22.084 27.5007 21.0586 28.998C20.0413 30.4954 18.4707 31.2441 16.3467 31.2441C14.2878 31.2441 12.7334 30.471 11.6836 28.9248C10.6419 27.3786 10.1211 25.0959 10.1211 22.0767C10.1211 18.9272 10.6297 16.6079 11.647 15.1187C12.6642 13.6213 14.2308 12.8726 16.3467 12.8726C18.4056 12.8726 19.96 13.6538 21.0098 15.2163C22.0677 16.7788 22.5967 19.0656 22.5967 22.0767ZM13.8687 22.0767C13.8687 24.2658 14.0558 25.8364 14.4302 26.7886C14.8127 27.7326 15.4515 28.2046 16.3467 28.2046C17.2256 28.2046 17.8604 27.7244 18.251 26.7642C18.6416 25.8039 18.8369 24.2414 18.8369 22.0767C18.8369 19.8875 18.6375 18.3169 18.2388 17.3647C17.8481 16.4045 17.2174 15.9243 16.3467 15.9243C15.4596 15.9243 14.8249 16.4045 14.4424 17.3647C14.0599 18.3169 13.8687 19.8875 13.8687 22.0767ZM30.9951 19.5986C32.7204 19.5986 34.0916 20.0828 35.1089 21.0513C36.1343 22.0197 36.647 23.3462 36.647 25.0308C36.647 27.0246 36.0326 28.5586 34.8037 29.6328C33.5749 30.707 31.8171 31.2441 29.5303 31.2441C27.5446 31.2441 25.9414 30.9227 24.7207 30.2798V27.0205C25.3636 27.3623 26.1123 27.6431 26.9668 27.8628C27.8213 28.0744 28.631 28.1802 29.396 28.1802C31.6991 28.1802 32.8506 27.2362 32.8506 25.3481C32.8506 23.5496 31.6584 22.6504 29.2739 22.6504C28.8426 22.6504 28.3665 22.6951 27.8457 22.7847C27.3249 22.866 26.9017 22.9556 26.5762 23.0532L25.0747 22.2476L25.7461 13.1533H35.4263V16.3516H29.0542L28.7246 19.855L29.1519 19.7695C29.6483 19.6556 30.2627 19.5986 30.9951 19.5986Z" fill="white"/>
</svg>
