<svg width="47" height="47" viewBox="0 0 47 47" fill="none" xmlns="http://www.w3.org/2000/svg">
<rect width="47" height="47" fill="#4770A0"/>
<path d="M22.5967 22.0767C22.5967 25.1935 22.084 27.5007 21.0586 28.998C20.0413 30.4954 18.4707 31.2441 16.3467 31.2441C14.2878 31.2441 12.7334 30.471 11.6836 28.9248C10.6419 27.3786 10.1211 25.0959 10.1211 22.0767C10.1211 18.9272 10.6297 16.6079 11.647 15.1187C12.6642 13.6213 14.2308 12.8726 16.3467 12.8726C18.4056 12.8726 19.96 13.6538 21.0098 15.2163C22.0677 16.7788 22.5967 19.0656 22.5967 22.0767ZM13.8687 22.0767C13.8687 24.2658 14.0558 25.8364 14.4302 26.7886C14.8127 27.7326 15.4515 28.2046 16.3467 28.2046C17.2256 28.2046 17.8604 27.7244 18.251 26.7642C18.6416 25.8039 18.8369 24.2414 18.8369 22.0767C18.8369 19.8875 18.6375 18.3169 18.2388 17.3647C17.8481 16.4045 17.2174 15.9243 16.3467 15.9243C15.4596 15.9243 14.8249 16.4045 14.4424 17.3647C14.0599 18.3169 13.8687 19.8875 13.8687 22.0767ZM36.2808 17.145C36.2808 18.2599 35.943 19.208 35.2676 19.9893C34.5921 20.7705 33.644 21.3076 32.4233 21.6006V21.6738C33.8638 21.8529 34.9543 22.2923 35.6948 22.9922C36.4354 23.6839 36.8057 24.6198 36.8057 25.7998C36.8057 27.5169 36.1831 28.8556 34.938 29.8159C33.6929 30.7681 31.9147 31.2441 29.6035 31.2441C27.6667 31.2441 25.9495 30.9227 24.4521 30.2798V27.0693C25.1439 27.4193 25.9048 27.7041 26.7349 27.9238C27.5649 28.1436 28.3869 28.2534 29.2007 28.2534C30.4458 28.2534 31.3654 28.0418 31.9595 27.6187C32.5535 27.1955 32.8506 26.516 32.8506 25.5801C32.8506 24.7419 32.5088 24.1478 31.8252 23.7979C31.1416 23.4479 30.0511 23.2729 28.5537 23.2729H27.1987V20.3799H28.5781C29.9616 20.3799 30.9707 20.2008 31.6055 19.8428C32.2484 19.4766 32.5698 18.854 32.5698 17.9751C32.5698 16.6242 31.7235 15.9487 30.0308 15.9487C29.4448 15.9487 28.8467 16.0464 28.2363 16.2417C27.6341 16.437 26.9627 16.7747 26.2222 17.2549L24.4766 14.6548C26.1042 13.4829 28.0451 12.897 30.2993 12.897C32.1466 12.897 33.6034 13.2713 34.6694 14.02C35.7437 14.7687 36.2808 15.8104 36.2808 17.145Z" fill="white"/>
</svg>
