<svg width="47" height="47" viewBox="0 0 47 47" fill="none" xmlns="http://www.w3.org/2000/svg">
<rect width="47" height="47" fill="#4770A0"/>
<path d="M22.5967 22.0767C22.5967 25.1935 22.084 27.5007 21.0586 28.998C20.0413 30.4954 18.4707 31.2441 16.3467 31.2441C14.2878 31.2441 12.7334 30.471 11.6836 28.9248C10.6419 27.3786 10.1211 25.0959 10.1211 22.0767C10.1211 18.9272 10.6297 16.6079 11.647 15.1187C12.6642 13.6213 14.2308 12.8726 16.3467 12.8726C18.4056 12.8726 19.96 13.6538 21.0098 15.2163C22.0677 16.7788 22.5967 19.0656 22.5967 22.0767ZM13.8687 22.0767C13.8687 24.2658 14.0558 25.8364 14.4302 26.7886C14.8127 27.7326 15.4515 28.2046 16.3467 28.2046C17.2256 28.2046 17.8604 27.7244 18.251 26.7642C18.6416 25.8039 18.8369 24.2414 18.8369 22.0767C18.8369 19.8875 18.6375 18.3169 18.2388 17.3647C17.8481 16.4045 17.2174 15.9243 16.3467 15.9243C15.4596 15.9243 14.8249 16.4045 14.4424 17.3647C14.0599 18.3169 13.8687 19.8875 13.8687 22.0767ZM36.9766 31H24.501V28.3755L28.981 23.8467C30.3075 22.4876 31.1742 21.5477 31.5811 21.0269C31.988 20.4979 32.2809 20.0096 32.46 19.562C32.639 19.1144 32.7285 18.6506 32.7285 18.1704C32.7285 17.4543 32.5291 16.9212 32.1304 16.5713C31.7397 16.2214 31.2148 16.0464 30.5557 16.0464C29.8639 16.0464 29.1925 16.2051 28.5415 16.5225C27.8905 16.8398 27.2109 17.2915 26.5029 17.8774L24.4521 15.4482C25.3311 14.6995 26.0594 14.1706 26.6372 13.8613C27.215 13.5521 27.8457 13.3161 28.5293 13.1533C29.2129 12.9824 29.9779 12.897 30.8242 12.897C31.9391 12.897 32.9238 13.1004 33.7783 13.5073C34.6328 13.9142 35.2961 14.4839 35.7681 15.2163C36.2401 15.9487 36.4761 16.7869 36.4761 17.731C36.4761 18.5529 36.3296 19.326 36.0366 20.0503C35.7518 20.7664 35.3042 21.5029 34.6938 22.2598C34.0916 23.0166 33.0256 24.0949 31.4956 25.4946L29.2007 27.6553V27.8262H36.9766V31Z" fill="white"/>
</svg>
