<svg width="47" height="47" viewBox="0 0 47 47" fill="none" xmlns="http://www.w3.org/2000/svg">
<rect width="47" height="47" fill="#4770A0"/>
<path d="M22.5967 22.0767C22.5967 25.1935 22.084 27.5007 21.0586 28.998C20.0413 30.4954 18.4707 31.2441 16.3467 31.2441C14.2878 31.2441 12.7334 30.471 11.6836 28.9248C10.6419 27.3786 10.1211 25.0959 10.1211 22.0767C10.1211 18.9272 10.6297 16.6079 11.647 15.1187C12.6642 13.6213 14.2308 12.8726 16.3467 12.8726C18.4056 12.8726 19.96 13.6538 21.0098 15.2163C22.0677 16.7788 22.5967 19.0656 22.5967 22.0767ZM13.8687 22.0767C13.8687 24.2658 14.0558 25.8364 14.4302 26.7886C14.8127 27.7326 15.4515 28.2046 16.3467 28.2046C17.2256 28.2046 17.8604 27.7244 18.251 26.7642C18.6416 25.8039 18.8369 24.2414 18.8369 22.0767C18.8369 19.8875 18.6375 18.3169 18.2388 17.3647C17.8481 16.4045 17.2174 15.9243 16.3467 15.9243C15.4596 15.9243 14.8249 16.4045 14.4424 17.3647C14.0599 18.3169 13.8687 19.8875 13.8687 22.0767ZM33.8271 31H30.0552V20.6729L30.0918 18.9761L30.1528 17.1206C29.5262 17.7472 29.0908 18.1582 28.8467 18.3535L26.7959 20.0015L24.9771 17.731L30.7266 13.1533H33.8271V31Z" fill="white"/>
</svg>
